<svg width="239" height="238" xmlns="http://www.w3.org/2000/svg" xmlns:xlink="http://www.w3.org/1999/xlink" xml:space="preserve" overflow="hidden"><defs><clipPath id="clip0"><rect x="532" y="180" width="239" height="238"/></clipPath></defs><g clip-path="url(#clip0)" transform="translate(-532 -180)"><path d="M119 198.333C75.3667 198.333 39.6667 162.633 39.6667 119 39.6667 75.3667 75.3667 39.6667 119 39.6667 162.633 39.6667 198.333 75.3667 198.333 119 198.333 162.633 162.633 198.333 119 198.333ZM119 24.7917C66.9375 24.7917 24.7917 66.9375 24.7917 119 24.7917 171.062 66.9375 213.208 119 213.208 171.062 213.208 213.208 171.062 213.208 119 213.208 66.9375 171.062 24.7917 119 24.7917Z" transform="matrix(1.0042 0 0 1 532 180)"/><path d="M123.958 69.4167 114.042 69.4167 114.042 119C114.042 120.488 114.538 121.727 115.529 122.471L150.485 157.427 157.427 150.485 123.958 117.017 123.958 69.4167Z" transform="matrix(1.0042 0 0 1 532 180)"/><path d="M123.958 54.5417C123.958 57.2801 121.738 59.5 119 59.5 116.262 59.5 114.042 57.2801 114.042 54.5417 114.042 51.8033 116.262 49.5833 119 49.5833 121.738 49.5833 123.958 51.8033 123.958 54.5417Z" transform="matrix(1.0042 0 0 1 532 180)"/><path d="M123.958 183.458C123.958 186.197 121.738 188.417 119 188.417 116.262 188.417 114.042 186.197 114.042 183.458 114.042 180.72 116.262 178.5 119 178.5 121.738 178.5 123.958 180.72 123.958 183.458Z" transform="matrix(1.0042 0 0 1 532 180)"/><path d="M59.5 119C59.5 121.738 57.2801 123.958 54.5417 123.958 51.8033 123.958 49.5833 121.738 49.5833 119 49.5833 116.262 51.8033 114.042 54.5417 114.042 57.2801 114.042 59.5 116.262 59.5 119Z" transform="matrix(1.0042 0 0 1 532 180)"/><path d="M188.417 119C188.417 121.738 186.197 123.958 183.458 123.958 180.72 123.958 178.5 121.738 178.5 119 178.5 116.262 180.72 114.042 183.458 114.042 186.197 114.042 188.417 116.262 188.417 119Z" transform="matrix(1.0042 0 0 1 532 180)"/></g></svg>